HIERARCHY
ROOT joint_Root
{
	OFFSET 0.0 0.0 0.0
	CHANNELS 6 Xposition Yposition Zposition Zrotation Xrotation Yrotation 
	JOINT Hips
	{
		OFFSET 4.5925 91.4895 -427.239
		CHANNELS 6 Xposition Yposition Zposition Zrotation Xrotation Yrotation 
		JOINT Spine
		{
			OFFSET 15.7357 0.0 0.0
			CHANNELS 6 Xposition Yposition Zposition Zrotation Xrotation Yrotation 
			JOINT Chest
			{
				OFFSET 8.98455 -0.406207 0.0
				CHANNELS 6 Xposition Yposition Zposition Zrotation Xrotation Yrotation 
				JOINT Neck
				{
					OFFSET 16.3773 0.0 0.0
					CHANNELS 6 Xposition Yposition Zposition Zrotation Xrotation Yrotation 
					JOINT Head
					{
						OFFSET 6.45672 0.0 0.0
						CHANNELS 6 Xposition Yposition Zposition Zrotation Xrotation Yrotation 
						End Site
						{
							OFFSET 0.0 0.0 0.0
						}
					}
				}
				JOINT Shoulder_L
				{
					OFFSET 12.9942 -0.242716 4.98039
					CHANNELS 6 Xposition Yposition Zposition Zrotation Xrotation Yrotation 
					JOINT UpperArm_L
					{
						OFFSET 5.34809 0.0 0.0
						CHANNELS 6 Xposition Yposition Zposition Zrotation Xrotation Yrotation 
						JOINT LowerArm_L
						{
							OFFSET 24.3286 1.87007e-05 0.0
							CHANNELS 6 Xposition Yposition Zposition Zrotation Xrotation Yrotation 
							JOINT Hand_L
							{
								OFFSET 22.2916 0.0 0.0
								CHANNELS 6 Xposition Yposition Zposition Zrotation Xrotation Yrotation 
								End Site
								{
									OFFSET 0.0 0.0 0.0
								}
							}
						}
					}
				}
				JOINT Shoulder_R
				{
					OFFSET 12.9945 -0.242716 -4.98039
					CHANNELS 6 Xposition Yposition Zposition Zrotation Xrotation Yrotation 
					JOINT UpperArm_R
					{
						OFFSET -5.34813 0.0 0.0
						CHANNELS 6 Xposition Yposition Zposition Zrotation Xrotation Yrotation 
						JOINT LowerArm_R
						{
							OFFSET -24.3289 0.000322201 0.0
							CHANNELS 6 Xposition Yposition Zposition Zrotation Xrotation Yrotation 
							JOINT Hand_R
							{
								OFFSET -22.2915 -0.000108084 0.0
								CHANNELS 6 Xposition Yposition Zposition Zrotation Xrotation Yrotation 
								End Site
								{
									OFFSET 0.0 0.0 0.0
								}
							}
						}
					}
				}
			}
		}
		JOINT UpperLeg_L
		{
			OFFSET -2.19248 -6.46944 0.0
			CHANNELS 6 Xposition Yposition Zposition Zrotation Xrotation Yrotation 
			JOINT LowerLeg_L
			{
				OFFSET 39.0811 0.0 -1.23785e-05
				CHANNELS 6 Xposition Yposition Zposition Zrotation Xrotation Yrotation 
				JOINT Foot_L
				{
					OFFSET 40.9854 0.0 -1.26872e-05
					CHANNELS 6 Xposition Yposition Zposition Zrotation Xrotation Yrotation 
					JOINT Toes_L
					{
						OFFSET 11.7543 0.0 0.0
						CHANNELS 6 Xposition Yposition Zposition Zrotation Xrotation Yrotation 
						End Site
						{
							OFFSET 0.0 0.0 0.0
						}
					}
				}
			}
		}
		JOINT UpperLeg_R
		{
			OFFSET -2.19251 6.46944 0.0
			CHANNELS 6 Xposition Yposition Zposition Zrotation Xrotation Yrotation 
			JOINT LowerLeg_R
			{
				OFFSET -39.0811 -0.00228153 -0.0401928
				CHANNELS 6 Xposition Yposition Zposition Zrotation Xrotation Yrotation 
				JOINT Foot_R
				{
					OFFSET -40.9854 0.0 0.0
					CHANNELS 6 Xposition Yposition Zposition Zrotation Xrotation Yrotation 
					JOINT Toes_R
					{
						OFFSET -11.7543 0.0 0.0
						CHANNELS 6 Xposition Yposition Zposition Zrotation Xrotation Yrotation 
						End Site
						{
							OFFSET 0.0 0.0 0.0
						}
					}
				}
			}
		}
	}
}
MOTION
Frames:	6
Frame Time:	0.0333333
0.000000 0.000000 0.000000 0.000000 0.000000 -0.000000 -8.317700 90.025000 -0.495814 85.097500 -3.726870 12.853200 15.735700 0.000005 -0.000001 75.249600 81.368700 -70.158600 8.984550 -0.406207 -0.000000 9.160010 -4.309240 10.523200 16.377300 -0.000001 -0.000001 27.876100 -12.055600 5.532910 6.456720 -0.000001 -0.000000 14.633500 -15.024000 19.924100 12.994200 -0.242716 4.980390 -87.784000 -5.300060 -67.270400 5.348090 -0.000007 -0.000001 -64.758900 -53.277800 -89.056300 24.328600 0.000019 0.000005 13.643700 6.435650 -65.213700 22.291600 -0.000001 0.000005 16.723400 5.395800 -2.801530 12.994500 -0.242716 -4.980390 87.360300 10.539000 -75.852300 -5.348130 -0.000001 -0.000004 -57.078000 27.718700 -10.329700 -24.328900 0.000322 -0.000009 2.533400 7.180480 -19.500100 -22.291500 -0.000108 -0.000004 14.721600 5.417580 -3.517540 -2.192480 -6.469440 -0.000000 -164.162000 -9.941570 1.996840 39.081100 -0.000007 -0.000012 -0.297661 0.443315 33.879700 40.985400 -0.000006 -0.000013 -4.386000 8.275860 -71.566200 11.754300 -0.000000 0.000003 -0.000099 -0.001024 -16.616800 -2.192510 6.469440 -0.000001 -179.950000 27.122600 -173.000000 -39.081100 -0.002282 -0.040193 -0.183314 0.335062 29.116500 -40.985400 0.000008 0.000006 9.741120 16.397000 -73.836100 -11.754300 -0.000006 -0.000006 -0.000438 -0.007065 -16.860800
0.000000 0.000000 0.000000 0.000000 0.000000 -0.000000 -8.377320 90.007400 -0.443783 85.132200 -3.675620 12.909500 15.735700 0.000005 -0.000001 75.126400 81.399600 -70.042700 8.984550 -0.406207 -0.000000 9.091420 -4.332560 10.507700 16.377300 -0.000001 -0.000001 27.900600 -12.017800 5.530950 6.456720 -0.000001 -0.000000 14.676900 -14.996900 19.982400 12.994200 -0.242716 4.980390 -87.775200 -5.305460 -67.210200 5.348090 -0.000007 -0.000001 -64.713100 -53.441200 -88.976600 24.328600 0.000019 0.000005 13.668100 6.455260 -65.188200 22.291600 -0.000001 0.000005 16.740300 5.393480 -2.726910 12.994500 -0.242716 -4.980390 87.364600 10.534800 -75.869400 -5.348130 -0.000001 -0.000004 -57.063100 27.731700 -10.284700 -24.328900 0.000322 -0.000009 2.539560 7.213280 -19.462200 -22.291500 -0.000108 -0.000004 14.707600 5.417090 -3.501130 -2.192480 -6.469440 -0.000000 -164.159000 -9.859850 2.069370 39.081100 -0.000007 -0.000012 -0.299496 0.445911 33.887900 40.985400 -0.000006 -0.000013 -4.432580 8.267550 -71.598900 11.754300 -0.000000 0.000003 -0.000082 -0.000871 -16.611100 -2.192510 6.469440 -0.000001 -179.971000 27.095300 -172.928000 -39.081100 -0.002282 -0.040193 -0.183411 0.334533 29.167600 -40.985400 0.000008 0.000006 9.758220 16.299300 -73.909800 -11.754300 -0.000006 -0.000006 -0.000459 -0.007390 -16.874000
0.000000 0.000000 0.000000 0.000000 0.000000 -0.000000 -8.431660 89.995700 -0.406436 85.182300 -3.607310 12.978400 15.735700 0.000005 -0.000001 74.981900 81.423100 -69.909200 8.984550 -0.406207 -0.000000 9.036100 -4.365000 10.486400 16.377300 -0.000001 -0.000001 27.906500 -12.038800 5.539350 6.456720 -0.000001 -0.000000 14.688700 -15.018100 20.091200 12.994200 -0.242716 4.980390 -87.769600 -5.300820 -67.140900 5.348090 -0.000007 -0.000001 -64.695400 -53.608700 -88.963400 24.328600 0.000019 0.000005 13.699500 6.497800 -65.097400 22.291600 -0.000001 0.000005 16.684500 5.392890 -2.707820 12.994500 -0.242716 -4.980390 87.369200 10.522900 -75.877800 -5.348130 -0.000001 -0.000004 -57.102900 27.756900 -10.250400 -24.328900 0.000322 -0.000009 2.525380 7.244010 -19.285900 -22.291500 -0.000108 -0.000004 14.746700 5.419730 -3.589860 -2.192480 -6.469440 -0.000000 -164.170000 -9.757290 2.162880 39.081100 -0.000007 -0.000012 -0.300761 0.448318 33.856900 40.985400 -0.000006 -0.000013 -4.459940 8.330580 -71.610400 11.754300 -0.000000 0.000003 -0.000085 -0.000897 -16.612100 -2.192510 6.469440 -0.000001 179.985000 27.080300 -172.844000 -39.081100 -0.002282 -0.040193 -0.183881 0.334880 29.203600 -40.985400 0.000008 0.000006 9.764680 16.189200 -73.964900 -11.754300 -0.000006 -0.000006 -0.000476 -0.007666 -16.885200
0.000000 0.000000 0.000000 0.000000 0.000000 -0.000000 -8.483820 89.968600 -0.354855 85.225800 -3.482090 13.083500 15.735700 0.000005 -0.000001 74.875300 81.441100 -69.806900 8.984550 -0.406207 -0.000000 8.993990 -4.388420 10.477900 16.377300 -0.000001 -0.000001 27.918200 -12.108300 5.629070 6.456720 -0.000001 -0.000000 14.699300 -15.133900 20.148500 12.994200 -0.242716 4.980390 -87.767600 -5.318090 -67.188800 5.348090 -0.000007 -0.000001 -64.778700 -53.797100 -88.978500 24.328600 0.000019 0.000005 13.681100 6.512810 -65.016400 22.291600 -0.000001 0.000005 16.635800 5.393560 -2.729450 12.994500 -0.242716 -4.980390 87.360100 10.517600 -75.824300 -5.348130 -0.000001 -0.000004 -57.172000 27.713400 -10.181100 -24.328900 0.000322 -0.000009 2.532910 7.316120 -19.163500 -22.291500 -0.000108 -0.000004 14.671200 5.417150 -3.503400 -2.192480 -6.469440 -0.000000 -164.168000 -9.684930 2.227660 39.081100 -0.000007 -0.000012 -0.301866 0.448876 33.921200 40.985400 -0.000006 -0.000013 -4.486760 8.363150 -71.649900 11.754300 -0.000000 0.000003 -0.000086 -0.000907 -16.612500 -2.192510 6.469440 -0.000001 179.963000 26.979900 -172.773000 -39.081100 -0.002282 -0.040193 -0.188490 0.341550 29.316000 -40.985400 0.000008 0.000006 9.752880 15.984000 -74.048300 -11.754300 -0.000006 -0.000006 -0.000644 -0.010215 -16.988800
0.000000 0.000000 0.000000 0.000000 0.000000 -0.000000 -8.534730 89.962100 -0.334267 85.233900 -3.390390 13.130000 15.735700 0.000005 -0.000001 74.683700 81.468800 -69.609800 8.984550 -0.406207 -0.000000 8.927830 -4.431920 10.489900 16.377300 -0.000001 -0.000001 27.922400 -12.171100 5.690200 6.456720 -0.000001 -0.000000 14.714000 -15.189000 20.295300 12.994200 -0.242716 4.980390 -87.762800 -5.325230 -67.171800 5.348090 -0.000007 -0.000001 -64.827500 -54.004500 -89.022800 24.328600 0.000019 0.000005 13.593600 6.520670 -64.843400 22.291600 -0.000001 0.000005 16.677800 5.394150 -2.748360 12.994500 -0.242716 -4.980390 87.340700 10.564900 -75.784400 -5.348130 -0.000001 -0.000004 -57.222300 27.685300 -10.068300 -24.328900 0.000322 -0.000009 2.504710 7.268310 -19.080500 -22.291500 -0.000108 -0.000004 14.580900 5.417130 -3.502570 -2.192480 -6.469440 -0.000000 -164.150000 -9.589530 2.277850 39.081100 -0.000007 -0.000012 -0.301972 0.449345 33.902700 40.985400 -0.000006 -0.000013 -4.510060 8.416150 -71.653800 11.754300 -0.000000 0.000003 -0.000083 -0.000881 -16.611500 -2.192510 6.469440 -0.000001 179.993000 26.942200 -172.708000 -39.081100 -0.002282 -0.040193 -0.187580 0.340097 29.304100 -40.985400 0.000008 0.000006 9.739310 15.833900 -74.061400 -11.754300 -0.000006 -0.000006 -0.000374 -0.006078 -16.820700
0.000000 0.000000 0.000000 0.000000 0.000000 -0.000000 -8.583480 89.942300 -0.303248 85.250600 -3.334110 13.178800 15.735700 0.000005 -0.000001 74.616900 81.487600 -69.526000 8.984550 -0.406207 -0.000000 8.887690 -4.442920 10.522900 16.377300 -0.000001 -0.000001 27.905400 -12.217000 5.758190 6.456720 -0.000001 -0.000000 14.731100 -15.290300 20.434900 12.994200 -0.242716 4.980390 -87.743300 -5.359910 -67.126800 5.348090 -0.000007 -0.000001 -64.998100 -54.184800 -89.114900 24.328600 0.000019 0.000005 13.455200 6.506600 -64.656200 22.291600 -0.000001 0.000005 16.722200 5.394170 -2.749110 12.994500 -0.242716 -4.980390 87.329900 10.563100 -75.726700 -5.348130 -0.000001 -0.000004 -57.278100 27.741800 -9.974080 -24.328900 0.000322 -0.000009 2.507210 7.294690 -19.034400 -22.291500 -0.000108 -0.000004 14.607600 5.417190 -3.504630 -2.192480 -6.469440 -0.000000 -164.132000 -9.528280 2.303070 39.081100 -0.000007 -0.000012 -0.303556 0.450915 33.949100 40.985400 -0.000006 -0.000013 -4.541180 8.431820 -71.684100 11.754300 -0.000000 0.000003 -0.000094 -0.000975 -16.615000 -2.192510 6.469440 -0.000001 179.990000 26.925500 -172.672000 -39.081100 -0.002282 -0.040193 -0.187414 0.338810 29.375600 -40.985400 0.000008 0.000006 9.763180 15.763500 -74.129300 -11.754300 -0.000006 -0.000006 -0.000390 -0.006318 -16.830400
